<?xml version="1.0" encoding="iso-8859-1"?>
<!-- Generator: Adobe Illustrator 19.0.0, SVG Export Plug-In . SVG Version: 6.00 Build 0)  -->
<svg version="1.1" id="Capa_1" xmlns="http://www.w3.org/2000/svg" xmlns:xlink="http://www.w3.org/1999/xlink" x="0px" y="0px"
	 viewBox="0 0 512 512" style="enable-background:new 0 0 512 512;" xml:space="preserve">
<linearGradient id="SVGID_1_" gradientUnits="userSpaceOnUse" x1="0" y1="258" x2="512" y2="258" gradientTransform="matrix(1 0 0 -1 0 514)">
	<stop  offset="0" style="stop-color:#00F2FE"/>
	<stop  offset="0.021" style="stop-color:#03EFFE"/>
	<stop  offset="0.293" style="stop-color:#24D2FE"/>
	<stop  offset="0.554" style="stop-color:#3CBDFE"/>
	<stop  offset="0.796" style="stop-color:#4AB0FE"/>
	<stop  offset="1" style="stop-color:#4FACFE"/>
</linearGradient>
<path style="fill:url(#SVGID_1_);" d="M345,89c-37.275,0-71.735,12.279-99.554,33H100c-11.046,0-20,8.954-20,20s8.954,20,20,20
	h107.041c-14.756,21.588-24.578,46.799-27.839,74H60c-11.046,0-20,8.954-20,20c0,11.046,8.954,20,20,20h119.202
	c3.261,27.201,13.083,52.412,27.839,74H20c-11.046,0-20,8.954-20,20s8.954,20,20,20h223c0.765,0,1.517-0.052,2.26-0.136
	C273.111,410.668,307.642,423,345,423c24.164,0,47.483-5.055,69.309-15.022c10.048-4.589,14.473-16.454,9.884-26.501
	c-4.59-10.047-16.455-14.473-26.501-9.884C381.118,379.162,363.39,383,345,383c-70.028,0-127-56.972-127-127s56.972-127,127-127
	s127,56.972,127,127c0,18.233-3.775,35.824-11.222,52.283c-4.554,10.064-0.086,21.913,9.978,26.466
	c10.064,4.554,21.913,0.086,26.466-9.978C507.028,303.096,512,279.958,512,256C512,163.916,437.084,89,345,89z"/>
<g>
</g>
<g>
</g>
<g>
</g>
<g>
</g>
<g>
</g>
<g>
</g>
<g>
</g>
<g>
</g>
<g>
</g>
<g>
</g>
<g>
</g>
<g>
</g>
<g>
</g>
<g>
</g>
<g>
</g>
</svg>
