<svg xmlns="http://www.w3.org/2000/svg" viewBox="0 0 576 512"><path d="M75.694 480a48.02 48.02 0 0 1-42.448-25.571C12.023 414.3 0 368.556 0 320 0 160.942 128.942 32 288 32s288 128.942 288 288c0 48.556-12.023 94.3-33.246 134.429A48.018 48.018 0 0 1 500.306 480H75.694zm291.419-350.921c-12.659-3.928-26.105 3.148-30.035 15.808L282.659 320.24C249.814 322.955 224 350.454 224 384c0 35.346 28.654 64 64 64s64-28.654 64-64c0-19.976-9.155-37.809-23.494-49.546l54.416-175.34c3.929-12.659-3.15-26.107-15.809-30.035z"/></svg>
